<svg width="1000" height="1000" viewBox="0 0 1000 1000" fill="none" xmlns="http://www.w3.org/2000/svg">
<rect width="1000" height="1000" fill="white"/>
<path d="M344.447 359.505L286.793 361.262C283.198 361.372 280.964 365.213 282.646 368.392L393 577C404.951 602.077 441.035 602.302 452.5 577L511 444.5L482.703 410.928C481.905 409.98 481.235 408.931 480.712 407.807C475.68 396.999 460.314 396.996 455.278 407.802L423.5 476L369 373.5C364.089 364.599 354.609 359.195 344.447 359.505Z" fill="url(#paint0_linear_157_30)"/>
<path d="M587 467.5L546.495 388.557C541.055 377.954 531.633 369.94 520.294 366.272C509.798 362.876 498.421 363.451 488.321 367.889L487.257 368.357C476.765 372.967 468.265 381.172 463.288 391.495L457.5 403.5L453.5 411.5L457.25 409.192C462.923 405.702 470.077 405.702 475.75 409.192C478.212 410.708 480.265 412.804 481.727 415.298L488 426L541 525.5C544.883 536.037 544.28 547.705 539.332 557.786L538 560.5L587 467.5Z" fill="url(#paint1_linear_157_30)"/>
<path d="M633.252 381.719L517 597H575.534C581.38 597 587.096 595.27 591.96 592.027C595.928 589.381 599.198 585.817 601.493 581.636L721.5 363H664.634C658.96 363 653.368 364.354 648.322 366.949C641.924 370.239 636.671 375.388 633.252 381.719Z" fill="url(#paint2_linear_157_30)"/>
<defs>
<linearGradient id="paint0_linear_157_30" x1="358" y1="476" x2="466.5" y2="422" gradientUnits="userSpaceOnUse">
<stop stop-color="#1678FB"/>
<stop offset="0.581731" stop-color="#1456C4"/>
<stop offset="1" stop-color="#142960"/>
</linearGradient>
<linearGradient id="paint1_linear_157_30" x1="512.5" y1="374.5" x2="512.5" y2="567.5" gradientUnits="userSpaceOnUse">
<stop stop-color="#0B75FC"/>
<stop offset="1" stop-color="#0A266D"/>
</linearGradient>
<linearGradient id="paint2_linear_157_30" x1="619.25" y1="363" x2="619.25" y2="597" gradientUnits="userSpaceOnUse">
<stop stop-color="#525252"/>
<stop offset="1" stop-color="#292A2C"/>
</linearGradient>
</defs>
</svg>
