<svg width="443" height="282" viewBox="0 0 443 282" fill="none" xmlns="http://www.w3.org/2000/svg">
<path d="M65.4472 0.504659L7.79309 2.26241C4.19839 2.372 1.9641 6.21284 3.64578 9.3918L114 218C125.951 243.077 162.035 243.302 173.5 218L232 85.5L203.703 51.9278C202.905 50.9801 202.235 49.9308 201.712 48.8072C196.68 37.9985 181.314 37.9957 176.278 48.8025L144.5 117L90 14.5C85.0889 5.59863 75.6088 0.194855 65.4472 0.504659Z" fill="url(#paint0_linear_170_241)"/>
<path d="M308 108.5L267.495 29.5571C262.055 18.954 252.633 10.9401 241.294 7.27166C230.798 3.87589 219.421 4.45149 209.321 8.88925L208.257 9.35679C197.765 13.9668 189.265 22.1724 184.288 32.4951L178.5 44.5L174.5 52.5L178.25 50.1925C183.923 46.7015 191.077 46.7015 196.75 50.1925C199.212 51.7076 201.265 53.8043 202.727 56.2983L209 67L262 166.5C265.883 177.037 265.28 188.705 260.332 198.786L259 201.5L308 108.5Z" fill="url(#paint1_linear_170_241)"/>
<path d="M354.252 22.7187L238 238H296.534C302.38 238 308.096 236.27 312.96 233.027C316.928 230.381 320.198 226.817 322.493 222.636L442.5 4H385.634C379.96 4 374.368 5.35365 369.322 7.94852C362.924 11.2391 357.671 16.3879 354.252 22.7187Z" fill="url(#paint2_linear_170_241)"/>
<defs>
<linearGradient id="paint0_linear_170_241" x1="79.0001" y1="117" x2="187.5" y2="63.0003" gradientUnits="userSpaceOnUse">
<stop stop-color="#1678FB"/>
<stop offset="0.581731" stop-color="#1456C4"/>
<stop offset="1" stop-color="#142960"/>
</linearGradient>
<linearGradient id="paint1_linear_170_241" x1="233.5" y1="15.5" x2="233.5" y2="208.5" gradientUnits="userSpaceOnUse">
<stop stop-color="#0B75FC"/>
<stop offset="1" stop-color="#0A266D"/>
</linearGradient>
<linearGradient id="paint2_linear_170_241" x1="340.25" y1="4" x2="340.25" y2="238" gradientUnits="userSpaceOnUse">
<stop stop-color="#525252"/>
<stop offset="1" stop-color="#292A2C"/>
</linearGradient>
</defs>
</svg>
