<svg width="512" height="512" viewBox="0 0 512 512" fill="none" xmlns="http://www.w3.org/2000/svg">
<rect width="512" height="512" fill="white"/>
<path d="M340 165.871V239.31C340 245.451 336.868 251.169 331.693 254.477L295.17 277.817C285.833 283.785 284.053 296.691 291.427 304.963L335.436 354.327C338.375 357.625 340 361.888 340 366.306V396C340 405.941 331.941 414 322 414H175C165.059 414 157 405.941 157 396V117C157 107.059 165.059 99 175 99H282.588L340 165.871Z" fill="black"/>
<path d="M340 165.871V239.31C340 245.451 336.868 251.169 331.693 254.477L295.17 277.817C285.833 283.785 284.053 296.691 291.427 304.963L335.436 354.327C338.375 357.625 340 361.888 340 366.306V396C340 405.941 331.941 414 322 414H175C165.059 414 157 405.941 157 396V117C157 107.059 165.059 99 175 99H282.588L340 165.871Z" stroke="black"/>
<path d="M321.497 292.558L316.452 277.952C315.777 275.999 313.396 275.27 311.743 276.51C310.701 277.292 310.271 278.651 310.675 279.89L314.631 292.036C315.655 295.183 315.533 298.591 314.285 301.655L311.009 309.703C310.421 311.148 310.925 312.807 312.217 313.68C313.975 314.867 316.379 314.111 317.141 312.132L321.346 301.206C322.414 298.431 322.468 295.368 321.497 292.558Z" fill="#FF0000" stroke="#FF0000"/>
<path d="M338.279 293.59L329.518 267.768C328.78 265.593 325.798 265.36 324.731 267.393C324.418 267.988 324.347 268.681 324.533 269.328L331.347 293.071C332.392 296.713 332.32 300.585 331.139 304.186L323.957 326.083C323.485 327.521 324.556 329 326.069 329C326.972 329 327.785 328.455 328.127 327.62L337.969 303.615C339.279 300.42 339.389 296.859 338.279 293.59Z" fill="#FF0000" stroke="#FF0000"/>
<path d="M353.957 297.947L344.618 259.217C343.92 256.325 340.024 255.815 338.605 258.43C338.216 259.147 338.111 259.985 338.312 260.776L345.418 288.845C347.641 297.622 347.371 306.846 344.639 315.479L338.49 334.905C338.179 335.89 338.306 336.962 338.839 337.846C340.468 340.549 344.54 339.992 345.384 336.951L353.811 306.561C354.591 303.749 354.641 300.784 353.957 297.947Z" fill="#F80000" stroke="#F80000"/>
<path d="M264.736 103H175C166.716 103 160 109.716 160 118V260.195V396C160 404.284 166.716 411 175 411H247.664H323C331.284 411 338 404.284 338 396V368.078C338 364.441 336.679 360.928 334.282 358.192L286.288 303.418C283.891 300.682 282.57 297.169 282.57 293.532V291.291C282.57 286.241 285.112 281.529 289.333 278.755L331.237 251.22C335.458 248.446 338 243.735 338 238.684V183.178C338 174.894 331.284 168.178 323 168.178H294.736C286.451 168.178 279.736 161.463 279.736 153.178V118C279.736 109.716 273.02 103 264.736 103Z" fill="#F80000" stroke="black" stroke-width="3"/>
<path d="M241.153 241.26L252.082 213C244.748 213 237.964 216.889 234.258 223.219L233.37 224.736L224.761 242.799C223.546 245.348 220.973 246.972 218.149 246.972H217.802C207.335 246.972 197.597 252.333 192 261.178C199.074 257.808 206.842 256.06 214.677 256.06C217.454 256.06 219.58 258.553 219.124 261.291L211.457 307.36C210.631 312.324 211.003 317.414 212.543 322.206L213.488 325.144C216.414 334.251 224.048 341.054 233.43 342.917L233.716 342.973C240.261 344.273 247.055 342.967 252.652 339.334C258.372 335.621 262.375 329.78 263.775 323.106L266.406 310.565L258.375 322.866C256.288 326.062 253.248 328.521 249.686 329.894L247.94 330.566C243.153 332.411 237.753 331.649 233.662 328.553C229.376 325.308 227.182 319.997 227.928 314.673L235.204 262.788C235.745 258.93 239.046 256.06 242.942 256.06H245.787C261.752 256.06 276.268 246.801 283 232.324C275.942 239.547 266.27 243.618 256.171 243.618H242.77C241.552 243.618 240.714 242.396 241.153 241.26Z" fill="white"/>
<path d="M283 155V128.184C283 121.776 290.896 118.736 295.193 123.49L319.431 150.306C323.499 154.807 320.305 162 314.238 162H290C286.134 162 283 158.866 283 155Z" fill="#FF0000" stroke="black"/>
</svg>
